<svg xmlns="http://www.w3.org/2000/svg" width="576" height="512"><path d="M544 450.583c0 22.75 13.014 42.454 32 52.092v7.969a119.794 119.794 0 0 1-16.25 1.112c-34.004 0-64.674-14.264-86.361-37.132C460.278 478.115 446.388 480 432 480c-79.529 0-144-57.308-144-128s64.471-128 144-128 144 57.308 144 128c0 27.674-9.882 53.296-26.678 74.233a58.073 58.073 0 0 0-5.322 24.35zm-428.661-339.99C82.232 137.492 64 172.085 64 208c0 20.149 5.594 39.689 16.626 58.075 11.376 18.96 28.491 36.293 49.494 50.126a63.997 63.997 0 0 1 28.088 43.947 161.8 161.8 0 0 1 1.685 18.062 159.005 159.005 0 0 0 10.94-9.988 64.007 64.007 0 0 1 53.329-18.233 253.539 253.539 0 0 0 31.797 2.01v64a316.277 316.277 0 0 1-39.871-2.521C161.099 468.467 95.463 478.328 32 479.776v-13.458c34.268-16.789 64-47.37 64-82.318 0-4.877-.379-9.665-1.082-14.348C37.02 331.52 0 273.275 0 208 0 93.125 114.615 0 256 0c139.229 0 252.496 90.307 255.918 202.76-20.548-9.158-42.92-14.711-66.131-16.289-5.765-28.034-22.701-54.408-49.126-75.878C379 96.244 358.203 84.898 334.847 76.871 309.994 68.331 283.467 64 256 64s-53.994 4.331-78.847 12.871c-23.356 8.027-44.153 19.372-61.814 33.722z"/></svg>