<svg xmlns="http://www.w3.org/2000/svg" width="1024" height="1024"><path d="M831.84 610.176h-42.368c-6.88 24.928-16.736 48.576-29.376 70.496l39.168 39.136c25.056 25.056 25.056 65.696 0 90.752l-22.688 22.688c-25.056 25.056-65.696 25.056-90.752 0L646.4 793.856c-21.856 12.448-45.408 22.144-70.208 28.896v41.088c0 35.424-28.704 64.16-64.16 64.16h-32.064c-35.424 0-64.192-28.704-64.192-64.16v-41.088c-24.768-6.752-48.352-16.48-70.208-28.896l-39.392 39.392c-25.024 25.056-65.664 25.056-90.72 0l-22.72-22.688c-25.056-25.056-25.056-65.696 0-90.752l39.168-39.136c-12.64-21.952-22.496-45.568-29.408-70.496H160.16c-35.456 0-64.16-28.704-64.16-64.128v-32.096c0-35.424 28.704-64.16 64.16-64.16h41.856c6.624-24.672 16.096-48.16 28.384-69.952l-37.664-37.632c-25.056-25.056-25.056-65.696 0-90.752l22.688-22.656c25.056-25.056 65.696-25.056 90.72 0l36.896 36.896c22.592-13.152 46.976-23.392 72.704-30.4V192.16c.032-35.456 28.8-64.16 64.224-64.16h32.064c35.424 0 64.16 28.704 64.16 64.16v43.104c25.792 7.04 50.144 17.28 72.704 30.432l36.896-36.896c25.056-25.056 65.696-25.056 90.752 0l22.688 22.656c25.056 25.056 25.056 65.696 0 90.752L761.6 379.84c12.288 21.792 21.76 45.28 28.416 69.984h41.856c35.424 0 64.16 28.736 64.16 64.16v32.096c-.032 35.392-28.736 64.096-64.192 64.096zM496 354.56c-97.44 0-176.448 79.008-176.448 176.448S398.56 707.456 496 707.456s176.448-79.008 176.448-176.448S593.44 354.56 496 354.56zm0 254.624c-44.288 0-80.224-35.872-80.224-80.192 0-44.288 35.936-80.192 80.224-80.192s80.192 35.904 80.192 80.192c0 44.32-35.904 80.192-80.192 80.192z"/></svg>