<svg xmlns="http://www.w3.org/2000/svg" width="512" height="512"><path d="M256 32c141.385 0 256 114.615 256 256 0 96.396-53.288 180.333-132.004 224H132.004C53.288 468.333 0 384.396 0 288 0 146.615 114.615 32 256 32zm144.957 400.957C439.676 394.237 461 342.758 461 288h-45v-32h42.519c-3.507-22.499-10.695-44.073-21.282-64H384v-32h32.142a208.511 208.511 0 0 0-15.185-16.957c-23.111-23.11-50.77-40.019-80.957-49.899V128h-32V85.48a207.721 207.721 0 0 0-64 0V128h-32V93.144c-30.186 9.88-57.846 26.788-80.957 49.899A208.511 208.511 0 0 0 95.858 160H128v32H74.762c-10.587 19.927-17.776 41.501-21.282 64H96v32H51c0 54.758 21.324 106.237 60.043 144.957A208.527 208.527 0 0 0 127.823 448H224l18.286-256h27.428L288 448h96.177a208.546 208.546 0 0 0 16.78-15.043z" fill="#4f5254"/></svg>