<svg xmlns="http://www.w3.org/2000/svg" width="1024" height="1024"><path d="M14.624 5.12A32.05 32.05 0 0 1 32 0c6.176 0 12.384 1.76 17.76 5.376l960 640a31.849 31.849 0 0 1 14.048 29.952c-1.216 11.808-8.896 22.016-19.936 26.368L753.504 801.888l-117.728 206.016c-5.632 9.888-16.096 16-27.424 16.128H608c-11.232 0-21.664-5.952-27.424-15.552l-66.464-110.816-310.24 124.064c-3.808 1.536-7.808 2.272-11.872 2.272a31.734 31.734 0 0 1-15.68-4.128c-8.448-4.736-14.24-13.056-15.872-22.624l-160-960A32.072 32.072 0 0 1 14.624 5.12zm909.024 659.744l-741.6-494.432 539.2 577.184c2.848-1.696 5.376-3.936 8.512-5.184l193.888-77.568zM697.952 770.112c.064-.128.16-.192.224-.32L92 120.992l516.768 805.184 89.184-156.064zM217.056 947.488l273.312-109.312c6.496-2.56 13.248-3.424 19.936-3.808L89.44 181.952l127.616 765.536z"/></svg>