<!-- Generated by IcoMoon.io -->
<svg version="1.1" xmlns="http://www.w3.org/2000/svg" width="1024" height="1024" viewBox="0 0 1024 1024">
<title></title>
<g id="icomoon-ignore">
</g>
<path fill="#000" d="M14.624 5.12c5.312-3.424 11.36-5.12 17.376-5.12 6.176 0 12.384 1.76 17.76 5.376l960 640c9.888 6.56 15.328 18.112 14.048 29.952-1.216 11.808-8.896 22.016-19.936 26.368l-250.368 100.192-117.728 206.016c-5.632 9.888-16.096 16-27.424 16.128-0.128 0-0.224 0-0.352 0-11.232 0-21.664-5.952-27.424-15.552l-66.464-110.816-310.24 124.064c-3.808 1.536-7.808 2.272-11.872 2.272-5.44 0-10.816-1.376-15.68-4.128-8.448-4.736-14.24-13.056-15.872-22.624l-160-960c-2.080-12.576 3.488-25.184 14.176-32.128zM923.648 664.864l-741.6-494.432 539.2 577.184c2.848-1.696 5.376-3.936 8.512-5.184l193.888-77.568zM697.952 770.112c0.064-0.128 0.16-0.192 0.224-0.32l-606.176-648.8 516.768 805.184 89.184-156.064zM217.056 947.488l273.312-109.312c6.496-2.56 13.248-3.424 19.936-3.808l-420.864-652.416 127.616 765.536z"></path>
</svg>
